<svg width="262" height="262" viewBox="0 0 262 262" fill="none" xmlns="http://www.w3.org/2000/svg">
<g clip-path="url(#clip0_367_197)">
<path fill-rule="evenodd" clip-rule="evenodd" d="M66.5007 36.4799C69.7302 23.8802 81.0108 14.5556 94.6111 14.5556C110.668 14.5556 123.722 27.6101 123.722 43.6667V214.694C123.722 232.798 109.076 247.444 90.9722 247.444C76.5076 247.444 64.4083 238.029 60.0417 225.065C58.2677 225.384 56.4483 225.611 54.5833 225.611C36.4799 225.611 21.8333 210.965 21.8333 192.861C21.8333 190.678 22.0608 188.54 22.4701 186.448C9.27917 180.989 0 167.98 0 152.833C0 139.324 7.41424 127.68 18.3309 121.402C16.0111 116.581 14.5556 111.259 14.5556 105.528C14.5556 90.3354 23.8802 77.3264 37.1622 71.8681C36.6618 69.8212 36.3889 67.6834 36.3889 65.5C36.3889 49.4434 49.4434 36.3889 65.5 36.3889C65.6819 36.3889 65.8411 36.4117 66.0004 36.4344C66.1595 36.4572 66.3187 36.4799 66.5007 36.4799Z" fill="#F4D580" fill-opacity="0.6"/>
<path d="M229.055 117.062L226.354 122.568L231.671 125.625C240.681 130.806 246.717 140.354 246.717 151.378C246.717 163.785 239.118 174.46 228.292 178.94L223.339 180.989L224.368 186.25C224.704 187.964 224.883 189.68 224.883 191.406C224.883 205.892 213.169 217.606 198.683 217.606C197.342 217.606 195.935 217.442 194.382 217.163L188.821 216.165L187.018 221.519C183.502 231.956 173.804 239.439 162.294 239.439C147.808 239.439 136.094 227.725 136.094 213.239V42.2111C136.094 29.7332 146.21 19.65 158.655 19.65C169.147 19.65 177.905 26.833 180.421 36.6506L181.683 41.5743H186.766C187.309 41.5743 187.804 41.5144 188.021 41.4847C200.343 41.6216 210.328 51.6902 210.328 64.0444C210.328 65.6025 210.099 67.2412 209.71 68.9916L208.514 74.3747L213.615 76.4709C224.534 80.9584 232.161 91.636 232.161 104.072C232.161 108.7 231.028 113.04 229.055 117.062Z" stroke="#F4D580" stroke-opacity="0.6" stroke-width="13.1"/>
<path d="M112.567 123.796C84.1837 95.4125 97.2837 65.1281 121.3 61.7119C145.317 58.2958 156.234 67.0291 169.334 91.0458" stroke="#F8B501" stroke-width="21.8333" stroke-linecap="round" stroke-linejoin="round"/>
<path d="M147.5 139.079C175.883 167.462 162.783 197.747 138.767 201.163C114.75 204.579 103.833 195.846 90.7333 171.829" stroke="#F8B501" stroke-width="21.8333" stroke-linecap="round" stroke-linejoin="round"/>
<path d="M147.5 93.2291C154.163 97.0196 167.15 97.8521 173.7 97.8521C180.25 97.8521 180.25 71.6521 180.25 71.6521" stroke="#F8B501" stroke-width="13.1" stroke-linecap="round" stroke-linejoin="round"/>
<path d="M114.75 169.902C108.087 166.112 95.1 165.279 88.55 165.279C82 165.279 82 191.479 82 191.479" stroke="#F8B501" stroke-width="13.1" stroke-linecap="round" stroke-linejoin="round"/>
</g>
<defs>
<clipPath id="clip0_367_197">
<rect width="262" height="262" fill="white"/>
</clipPath>
</defs>
</svg>
